<?xml version="1.0" encoding="utf-8"?>
<!-- Generator: Adobe Illustrator 19.2.1, SVG Export Plug-In . SVG Version: 6.00 Build 0)  -->
<svg version="1.1" id="Layer_1" xmlns="http://www.w3.org/2000/svg" xmlns:xlink="http://www.w3.org/1999/xlink" x="0px" y="0px"
	 viewBox="0 0 192 53" style="enable-background:new 0 0 192 53;" xml:space="preserve">
<style type="text/css">
	.st0{fill:#FFFFFF;}
	.st1{opacity:0.37;}
</style>
<g>
	<path class="st0" d="M181.1,16.6h4.4V17h-1.9v5.1H183V17h-1.9V16.6z"/>
	<path class="st0" d="M186,16.6h0.8l1.9,4.8l1.9-4.8h0.8v5.5h-0.5v-4.8h0l-1.9,4.8h-0.5l-1.9-4.8h0v4.8H186V16.6z"/>
</g>
<g class="st1">
	<path class="st0" d="M154.7,1.5c-3.4-0.4-6.8-0.5-10.2-0.6c-1.7,0-3.4,0.1-5.1,0.2c-1.7,0.1-3.4,0.3-5,0.6
		c-0.8,0.1-1.7,0.3-2.5,0.5c-0.8,0.2-1.6,0.4-2.4,0.6c-1.6,0.5-3.2,1-4.6,1.7c-1.5,0.7-2.9,1.6-4.2,2.6c-1.3,1-2.6,2.1-3.9,3.2
		c-2.5,2.2-5.1,4.6-8,6.6c-1.4,1-3,1.9-4.5,2.7c-1.6,0.8-3.2,1.4-4.9,1.9c-3.4,1-6.9,1.4-10.4,1.4c-1.7,0-3.5-0.1-5.2-0.3
		c-1.7-0.2-3.4-0.5-5.1-0.8l-0.2,0l-0.2-0.1c0,0,0,0,0,0l0,0l-0.1,0c0,0-0.1-0.1-0.1-0.1c-0.1,0-0.2-0.1-0.2-0.1c-0.1,0-0.1,0-0.1,0
		c0,0,0,0,0,0c-0.1,0.1-0.2,0.3-0.2,0.6c-0.1,0.3-0.1,0.6-0.1,0.9c0,0.6,0.1,1.3,0.1,2c0.1,0.7,0.2,1.4,0.4,2c0.1,0.7,0.3,1.4,0.5,2
		c0.2,0.7,0.3,1.4,0.5,2c0.4,1.4,0.7,2.7,1.1,4.1l0.6,2l0.6,2c0.4,1.4,0.7,2.8,0.9,4.2c0.1,0.7,0.2,1.4,0.2,2.2
		c0,0.7-0.1,1.4-0.2,2.1c-0.1,0.7-0.3,1.4-0.4,2.1c-0.2,0.7-0.4,1.4-0.6,2c0.3-1.4,0.5-2.8,0.6-4.2c0.1-1.4,0-2.8-0.3-4.1
		c-0.3-1.4-0.7-2.7-1.2-4l-0.7-2l-0.7-2c-0.5-1.3-0.9-2.7-1.3-4c-0.2-0.7-0.4-1.4-0.6-2c-0.2-0.7-0.4-1.4-0.6-2.1
		c-0.2-0.7-0.3-1.4-0.5-2.1c-0.1-0.7-0.2-1.5-0.2-2.2c0-0.4,0-0.8,0.1-1.2c0-0.2,0.1-0.4,0.2-0.7c0.1-0.2,0.2-0.5,0.4-0.7
		c0.2-0.2,0.5-0.5,0.8-0.6c0.3-0.1,0.7-0.2,1-0.1c0.3,0,0.5,0.1,0.8,0.2c0.1,0,0.2,0.1,0.3,0.2c0.1,0,0.1,0.1,0.2,0.1l0.1,0
		c0,0,0,0,0.1,0.1l-0.4-0.2c1.7,0.3,3.3,0.5,5,0.7c1.7,0.2,3.3,0.2,5,0.2c3.3,0,6.6-0.5,9.8-1.4c1.6-0.5,3.1-1.1,4.6-1.8
		c1.5-0.7,2.9-1.6,4.3-2.5c2.8-1.9,5.3-4.1,7.9-6.3c1.3-1.1,2.7-2.2,4.1-3.2c1.4-1,3-1.9,4.6-2.7c1.6-0.7,3.3-1.3,5-1.7
		c0.8-0.2,1.7-0.4,2.6-0.5c0.9-0.1,1.7-0.3,2.6-0.3c1.7-0.2,3.4-0.3,5.2-0.3c1.7,0,3.4,0,5.2,0.1c1.7,0.1,3.4,0.3,5.1,0.5
		c0.8,0.1,1.7,0.2,2.5,0.4C153.1,1.2,153.9,1.3,154.7,1.5z"/>
	<path class="st0" d="M162.3,5.5c-0.9-0.1-1.8-0.2-2.8-0.2c-0.9-0.1-1.8-0.1-2.8-0.2C154.9,5,153.1,5,151.2,5c-1.8,0-3.7,0-5.5,0.2
		c-1.8,0.1-3.7,0.3-5.5,0.5c-3.6,0.5-7.2,1.3-10.6,2.7c-3.3,1.4-6.3,3.5-9.2,5.8c-1.5,1.1-2.9,2.3-4.4,3.4c-1.5,1.1-3,2.2-4.7,3.2
		c-3.2,2-6.7,3.5-10.4,4.4c-1.8,0.5-3.7,0.8-5.6,0.9c-1.9,0.2-3.8,0.2-5.6,0.2c-3.7-0.1-7.5-0.6-11.1-1.4c3.7,0.4,7.4,0.7,11.1,0.5
		c1.8-0.1,3.7-0.2,5.5-0.5c1.8-0.3,3.6-0.6,5.4-1.1c0.9-0.3,1.7-0.5,2.6-0.9c0.9-0.3,1.7-0.7,2.5-1c1.6-0.8,3.2-1.6,4.8-2.6
		c3.1-1.9,5.9-4.3,8.9-6.6c1.5-1.1,3-2.3,4.6-3.3c0.8-0.5,1.6-1,2.5-1.4c0.8-0.4,1.7-0.9,2.6-1.2c1.8-0.7,3.6-1.2,5.5-1.6
		c1.8-0.4,3.7-0.7,5.6-0.9c1.9-0.2,3.7-0.3,5.6-0.3c1.9,0,3.7,0,5.6,0.1c1.9,0.1,3.7,0.3,5.6,0.5C158.7,4.8,160.5,5.1,162.3,5.5z"/>
	<path class="st0" d="M153.8,8.4c-3.3,0.1-6.7,0.4-10,0.8c-1.6,0.2-3.3,0.5-4.9,0.9c-1.6,0.4-3.2,0.8-4.8,1.3c-1.6,0.5-3,1.2-4.5,2
		c-1.4,0.8-2.8,1.7-4.2,2.6c-2.7,1.9-5.3,4-8.1,5.9c-2.8,1.9-5.7,3.6-8.8,5c-3.1,1.3-6.4,2.2-9.8,2.7c-1.7,0.2-3.4,0.4-5,0.5
		c-1.7,0.1-3.4,0-5,0c-3.4-0.2-6.7-0.6-10-1.3c3.3,0.4,6.7,0.6,10,0.6c1.7,0,3.3,0,5-0.2c1.7-0.1,3.3-0.3,4.9-0.6
		c0.8-0.1,1.6-0.3,2.4-0.5c0.8-0.2,1.6-0.4,2.4-0.6c1.6-0.5,3.1-1,4.6-1.7c1.5-0.7,3-1.4,4.4-2.2c1.4-0.8,2.8-1.7,4.2-2.7
		c1.4-0.9,2.7-1.9,4.1-2.9c1.3-1,2.7-2,4.1-2.9c1.4-0.9,2.8-1.8,4.4-2.6c0.8-0.4,1.5-0.8,2.3-1.1c0.8-0.3,1.6-0.6,2.4-0.9
		c3.2-1,6.6-1.6,9.9-1.9C147.1,8.3,150.4,8.3,153.8,8.4z"/>
	<path class="st0" d="M149.3,13c-3.1,0.5-6.2,1.1-9.2,2c-1.5,0.5-3,1-4.4,1.6c-1.4,0.6-2.8,1.4-4.1,2.2c-2.7,1.6-5.2,3.4-7.8,5.2
		c-2.6,1.8-5.3,3.4-8.1,4.9c-2.8,1.4-5.8,2.6-8.9,3.4c-3.1,0.8-6.2,1.3-9.3,1.6c-3.1,0.2-6.3,0.2-9.4,0c-3.1-0.2-6.3-0.6-9.4-1.1
		c6.2,0.7,12.5,1,18.7,0.4c3.1-0.3,6.2-0.9,9.2-1.7c3-0.8,5.9-2,8.7-3.4c2.8-1.4,5.4-3,8.1-4.8c2.6-1.7,5.2-3.5,8-5.1
		c1.4-0.8,2.8-1.5,4.2-2.1c1.5-0.6,3-1.1,4.5-1.5C143.1,13.8,146.2,13.3,149.3,13z"/>
	<path class="st0" d="M136.7,20.5c-2.4,1.1-4.6,2.3-6.8,3.8c-2.2,1.4-4.3,2.9-6.4,4.4c-2.1,1.5-4.4,2.9-6.7,4.1
		c-2.3,1.2-4.7,2.3-7.2,3.2c-2.5,0.8-5,1.5-7.6,1.9c-2.6,0.4-5.2,0.7-7.8,0.7c-5.2,0.1-10.4-0.4-15.5-1.3c5.2,0.5,10.4,0.8,15.5,0.6
		c2.6-0.1,5.1-0.4,7.7-0.9c2.5-0.4,5-1.1,7.5-1.9c2.4-0.8,4.8-1.9,7.1-3.1c2.3-1.2,4.5-2.6,6.7-4c2.2-1.4,4.3-2.8,6.6-4.2
		C131.9,22.6,134.3,21.4,136.7,20.5z"/>
</g>
<g>
	<path class="st0" d="M86.6,28.6c0.1-2.4,1.2-3.9,2.8-4.9c1.6-0.9,3.7-1.3,5.8-1.3c4.3,0,8.5,0.9,8.5,6.1v8c0,1.5,0,3.2,0.7,4.7h-6
		c-0.2-0.6-0.3-1.1-0.4-1.7c-1.5,1.6-3.8,2.2-6,2.2c-3.5,0-6.2-1.8-6.2-5.5c0-5.9,6.5-5.5,10.6-6.3c1-0.2,1.6-0.6,1.6-1.7
		c0-1.4-1.7-1.9-2.9-1.9c-1.7,0-2.7,0.7-3,2.3H86.6z M94.3,38c2.8,0,3.8-1.6,3.7-5.4c-0.8,0.5-2.4,0.6-3.7,1
		c-1.3,0.3-2.5,0.9-2.5,2.3C91.8,37.4,92.9,38,94.3,38z"/>
	<path class="st0" d="M107.6,23h5.8v2.5h0.1c1.1-1.9,3.5-3,5.7-3c6.1,0,6.6,4.4,6.6,7.1v11.7h-6v-8.8c0-2.5,0.3-5-3-5
		c-2.2,0-3.2,1.9-3.2,3.9v9.9h-6V23z"/>
	<path class="st0" d="M147.4,39c0,3-0.6,8.6-9.1,8.6c-4.2,0-8.3-0.9-9-5.8h6c0.1,0.8,0.5,1.3,1,1.6c0.5,0.3,1.3,0.4,2.2,0.4
		c2.8,0,3.1-2,3.1-4.2v-1.7h-0.1c-1.1,1.7-2.9,2.7-4.8,2.7c-5.5,0-8-3.9-8-9.1c0-4.8,2.8-8.9,8-8.9c2.2,0,3.8,0.9,4.9,2.8h0.1V23
		h5.7V39z M138.1,27c-2.6,0-3.5,2.3-3.5,4.6c0,2.1,1,4.3,3.4,4.3c2.5,0,3.6-2,3.6-4.2C141.7,29.3,140.8,27,138.1,27z"/>
	<path class="st0" d="M156.3,33.5c0.1,2.5,1.5,4.1,4.1,4.1c1.4,0,2.8-0.7,3.4-2h5.6c-1.1,4.2-5,6-9.1,6c-5.9,0-10-3.6-10-9.7
		c0-5.6,4.5-9.6,9.8-9.6c6.5,0,9.8,4.9,9.5,11.1H156.3z M163.7,30.2c-0.1-2-1.5-3.7-3.5-3.7c-2.1,0-3.5,1.5-3.9,3.7H163.7z"/>
	<path class="st0" d="M172.9,16.1h6v25.1h-6V16.1z"/>
</g>
<g>
	<path class="st0" d="M0,22.5h2v4.2h0.1c1.1-2.9,3.6-4.6,6.8-4.5v2.2c-4-0.2-6.7,2.7-6.7,6.5v9.7H0V22.5z"/>
	<path class="st0" d="M11.7,32.2c0,3.2,1.7,7.1,6,7.1c3.2,0,5-1.9,5.7-4.6h2.2c-0.9,4.1-3.3,6.5-7.9,6.5c-5.8,0-8.2-4.4-8.2-9.6
		c0-4.8,2.4-9.6,8.2-9.6c5.8,0,8.1,5.1,8,10.2H11.7z M23.5,30.3c-0.1-3.3-2.2-6.5-5.8-6.5c-3.6,0-5.6,3.2-6,6.5H23.5z"/>
	<path class="st0" d="M41.4,28.2c-0.6-2.7-2.2-4.4-5.1-4.4c-4.2,0-6.4,3.9-6.4,7.7c0,3.9,2.1,7.7,6.4,7.7c2.7,0,5-2.1,5.3-5.2h2.2
		c-0.6,4.4-3.4,7-7.5,7c-5.5,0-8.6-4.4-8.6-9.6c0-5.2,3-9.6,8.6-9.6c3.9,0,6.8,2.1,7.3,6.2H41.4z"/>
	<path class="st0" d="M46.7,28c0.2-4.2,3.2-6.1,7.3-6.1c3.2,0,6.7,1,6.7,5.8v9.6c0,0.8,0.4,1.3,1.3,1.3c0.2,0,0.5-0.1,0.7-0.1v1.9
		c-0.5,0.1-0.8,0.1-1.4,0.1c-2.2,0-2.6-1.3-2.6-3.2h-0.1c-1.5,2.4-3.1,3.7-6.6,3.7c-3.3,0-6.1-1.6-6.1-5.3c0-5.1,5-5.3,9.7-5.8
		c1.8-0.2,2.8-0.5,2.8-2.5c0-3-2.1-3.7-4.7-3.7c-2.7,0-4.8,1.3-4.8,4.2H46.7z M58.5,30.7L58.5,30.7c-0.4,0.5-1.3,0.7-1.9,0.8
		c-3.8,0.7-8.4,0.6-8.4,4.2c0,2.2,2,3.6,4,3.6c3.4,0,6.4-2.1,6.3-5.7V30.7z"/>
	<path class="st0" d="M65.1,15.5h2.2v25.1h-2.2V15.5z"/>
	<path class="st0" d="M71.6,15.5h2.2v25.1h-2.2V15.5z"/>
</g>
</svg>
