<?xml version="1.0" encoding="utf-8"?>
<!-- Generator: Adobe Illustrator 19.2.1, SVG Export Plug-In . SVG Version: 6.00 Build 0)  -->
<svg version="1.1" id="Layer_1" xmlns="http://www.w3.org/2000/svg" xmlns:xlink="http://www.w3.org/1999/xlink" x="0px" y="0px"
	 viewBox="0 0 247 46" style="enable-background:new 0 0 247 46;" xml:space="preserve">
<style type="text/css">
	.st0{fill:#E2E4E5;}
	.st1{fill:#6F7073;}
	.st2{fill:#3AC5F2;}
</style>
<g>
	<path class="st0" d="M49.6,44.3c-1.8,0.1-3.5,0.1-5.3,0.2l-5.3,0.2c-1.8,0.1-3.5,0.1-5.3,0.1l-5.3,0.1l-0.9,0l0.2-0.8
		c0.1-0.4,0.2-0.8,0.2-1.2c0.1-0.4,0.1-0.8,0.1-1.3c0.1-0.9,0.1-1.7,0.1-2.6c0-1.7-0.2-3.4-0.6-5c-0.4-1.6-1-3.3-1.9-4.7
		c-0.9-1.5-2-2.8-3.4-4c-0.7-0.6-1.4-1.1-2.2-1.6c-0.4-0.2-0.8-0.5-1.2-0.7c-0.2-0.1-0.4-0.2-0.6-0.3c-0.2-0.1-0.4-0.2-0.7-0.3
		c-1.8-0.8-2.9-1.5-4.8-2c-1.9-0.5-4.6-0.6-6.5-0.5c-0.9,0.1-1.8,0.3-2.6,0.6c-0.4,0.2-0.8,0.3-1.1,0.5c-0.2,0.1-0.3,0.2-0.5,0.3
		c-0.1,0.1-0.1,0.1-0.2,0.2l-0.1,0.1l0,0l0,0l0,0c0,0,6.7-6.2,17-1.3l0.7,0.3c0.2,0.1,0.5,0.2,0.7,0.4c0.5,0.3,0.9,0.5,1.4,0.8
		c0.9,0.6,1.8,1.2,2.5,1.9c1.5,1.4,2.8,3,3.7,4.7c0.9,1.7,1.5,3.5,1.8,5.3c0.3,1.8,0.4,3.6,0.4,5.4c0,0.9-0.1,1.8-0.2,2.7
		c-0.1,0.4-0.1,0.9-0.2,1.3c-0.1,0.4-0.2,0.9-0.3,1.3l-0.8-0.8l5.3,0.1c1.8,0,3.5,0.1,5.3,0.1l5.3,0.2
		C46.1,44.1,47.9,44.2,49.6,44.3z"/>
	<path class="st0" d="M47,42.6c-1.2-1.1-2.2-2.4-3.1-3.8c-0.9-1.4-1.6-2.8-2-4.3c-0.4-1.5-0.6-3.1-0.3-4.8c0.3-1.6,1-3.2,2.1-4.6
		c1.1-1.4,2.5-2.6,4-3.6c0.4-0.2,0.8-0.5,1.2-0.7c0.4-0.2,0.9-0.4,1.3-0.6c0.9-0.4,1.8-0.7,2.7-1c3.7-1.1,7.4-1.5,11.2-1.7
		c1.9-0.1,3.7-0.2,5.6-0.2c1.9,0,3.7,0,5.6,0.1c3.7,0.2,7.4,0.5,11,0.9c3.6,0.4,7.3,0.9,10.9,1.5c1.8,0.3,3.6,0.6,5.4,1
		c0.9,0.2,1.8,0.4,2.7,0.6c0.9,0.2,1.8,0.4,2.6,0.6l-5.5-0.5l-5.5-0.4c-3.6-0.3-7.3-0.6-10.9-0.8c-3.6-0.2-7.3-0.4-10.9-0.4
		c-1.8,0-3.6-0.1-5.4,0c-1.8,0-3.6,0.1-5.4,0.2c-1.8,0.1-3.6,0.3-5.3,0.5c-1.7,0.2-3.5,0.5-5.1,1c-0.8,0.2-1.6,0.5-2.4,0.8
		c-0.4,0.1-0.7,0.3-1.1,0.5c-0.3,0.2-0.7,0.4-1.1,0.6c-1.4,0.8-2.6,1.8-3.6,2.9c-0.5,0.6-0.9,1.1-1.3,1.8c-0.3,0.6-0.6,1.3-0.8,2
		c-0.4,1.4-0.4,2.8-0.2,4.2c0.2,1.4,0.7,2.9,1.3,4.3c0.3,0.7,0.7,1.4,1,2.1C46.1,41.3,46.5,42,47,42.6z"/>
	<path class="st0" d="M18.8,17.7c0.8-1.4,1.9-2.8,3.1-4.1c1.2-1.3,2.5-2.5,3.8-3.6c2.8-2.3,6-4.2,9.5-5.8c1.7-0.8,3.6-1.4,5.4-2
		c1.9-0.6,3.8-1,5.7-1.3c1.9-0.4,3.9-0.6,5.9-0.8C54.1,0,56.1,0,58,0c2,0,3.9,0.2,5.9,0.4c1.9,0.2,3.9,0.5,5.8,0.8
		c3.8,0.7,7.5,1.5,11.2,2.1c3.6,0.6,7.3,0.5,11,0c3.7-0.5,7.4-1.5,10.9-2.8c-1.6,0.9-3.3,1.7-5,2.4c-1.8,0.7-3.6,1.2-5.5,1.7
		c-1.9,0.4-3.8,0.8-5.8,0.9c-1,0.1-2,0.1-3,0.1c-0.5,0-1,0-1.5-0.1c-0.3,0-0.5,0-0.8-0.1l-0.7-0.1c-1.9-0.2-3.8-0.5-5.7-0.8
		C72.9,4.3,71,4,69.1,3.7c-1.9-0.3-3.7-0.5-5.6-0.7c-1.9-0.2-3.7-0.3-5.6-0.4c-1.9,0-3.7,0-5.6,0.1c-1.9,0.1-3.7,0.3-5.5,0.6
		C45,3.7,43.2,4,41.4,4.5c-1.8,0.4-3.5,1-5.2,1.6C32.8,7.4,29.6,9,26.7,11C23.8,12.9,21,15.2,18.8,17.7z"/>
	<path class="st0" d="M26.7,21.7c0.4-1.3,1.1-2.5,1.9-3.6c0.8-1.2,1.8-2.2,2.9-3.2c2.2-2,4.8-3.7,7.7-5c2.9-1.3,6-2.2,9.2-2.8
		c3.2-0.6,6.5-0.8,9.7-0.9c3.3,0,6.5,0.2,9.7,0.5c1.6,0.2,3.2,0.4,4.8,0.7c0.8,0.1,1.6,0.3,2.3,0.4c0.7,0.1,1.5,0.3,2.2,0.4
		c3,0.4,6.1,0.6,9.2,0.5c3.1-0.1,6.3-0.3,9.4-0.8c-1.5,0.5-3,1-4.5,1.3C89.6,9.6,88,9.8,86.4,10c-3.2,0.4-6.5,0.5-9.7,0.3
		c-0.8-0.1-1.6-0.1-2.4-0.3C73.5,10,72.7,9.9,72,9.8c-1.5-0.2-3.1-0.4-4.6-0.5c-3.1-0.3-6.2-0.4-9.3-0.4c-3.1,0-6.1,0.2-9.2,0.7
		c-3,0.5-6,1.1-8.7,2.2c-2.8,1-5.4,2.4-7.7,4c-1.2,0.8-2.2,1.8-3.2,2.8c-0.5,0.5-1,1-1.4,1.6C27.4,20.5,27,21.1,26.7,21.7z"/>
	<path class="st0" d="M37.5,39.8c-1-1.7-1.8-3.4-2.4-5.2c-0.3-0.9-0.5-1.8-0.7-2.7c-0.2-0.9-0.3-1.9-0.4-2.8c-0.1-1.9,0-3.8,0.6-5.7
		c0.3-0.9,0.7-1.9,1.3-2.7c0.6-0.9,1.3-1.7,2.1-2.4c0.8-0.7,1.6-1.4,2.6-2c0.5-0.3,1-0.6,1.5-0.9l0.4-0.2l0.4-0.2
		c0.3-0.1,0.5-0.2,0.8-0.4c2.1-0.9,4.4-1.5,6.6-2c4.6-0.8,9.1-1,13.6-0.9c4.6,0.1,9,0.5,13.5,0.9c4.4,0.4,8.8,0.9,13.2,1.3
		c4.4,0.4,8.8,0.8,13.2,0.9c2.2,0.1,4.4,0,6.6-0.2c1.1-0.1,2.2-0.2,3.2-0.5c1.1-0.2,2.1-0.5,3.1-1c-0.9,0.6-1.9,1-3,1.3
		c-1.1,0.3-2.1,0.6-3.2,0.8c-1.1,0.2-2.2,0.4-3.3,0.5c-1.1,0.1-2.2,0.2-3.4,0.3c-4.5,0.2-9,0.1-13.5-0.1c-4.5-0.2-8.9-0.6-13.3-0.9
		c-2.2-0.2-4.4-0.3-6.6-0.5c-2.2-0.1-4.4-0.3-6.6-0.3c-2.2,0-4.4,0-6.5,0.1c-2.2,0.1-4.3,0.3-6.4,0.6c-2.1,0.3-4.1,0.8-6,1.6
		c-0.2,0.1-0.5,0.2-0.7,0.3l-0.3,0.2l-0.3,0.2c-0.4,0.2-0.9,0.4-1.3,0.7c-0.8,0.5-1.6,1.1-2.3,1.7c-0.7,0.6-1.4,1.3-1.9,2
		c-0.5,0.7-1,1.5-1.3,2.3c-0.7,1.6-1,3.4-1.1,5.2c-0.1,1.8,0.1,3.6,0.4,5.4c0.2,0.9,0.4,1.8,0.6,2.7C36.9,38,37.2,38.9,37.5,39.8z"
		/>
</g>
<g>
	<path class="st1" d="M235.3,20.2h4.4v0.4h-1.9v5.1h-0.5v-5.1h-1.9V20.2z"/>
	<path class="st1" d="M240.2,20.2h0.8l1.9,4.8l1.9-4.8h0.8v5.5H245V21h0l-1.9,4.8h-0.5l-1.9-4.8h0v4.8h-0.5V20.2z"/>
</g>
<path class="st1" d="M13.7,28.9c-0.6-2.7-2.2-4.4-5.1-4.4c-4.2,0-6.4,3.9-6.4,7.7c0,3.9,2.1,7.7,6.4,7.7c2.7,0,5-2.1,5.3-5.2H16
	c-0.6,4.4-3.4,7-7.5,7C3,41.9,0,37.5,0,32.3s3-9.6,8.6-9.6c3.9,0,6.8,2.1,7.3,6.2H13.7z"/>
<path class="st1" d="M19.1,23.2h2v4.2h0.1c1.1-2.9,3.6-4.6,6.8-4.5v2.2c-4-0.2-6.7,2.7-6.7,6.5v9.7h-2.2V23.2z"/>
<path class="st1" d="M44.9,41.4h-2v-3.3h-0.1c-1.2,2.4-3.5,3.8-6.3,3.8c-4.6,0-6.4-2.7-6.4-6.9V23.2h2.2V35c0.1,3.3,1.3,5,4.8,5
	c3.8,0,5.4-3.6,5.4-7.3v-9.5h2.2V41.4z"/>
<path class="st1" d="M49.1,16.3h2.2v3.5h-2.2V16.3z M49.1,23.2h2.2v18.1h-2.2V23.2z"/>
<path class="st1" d="M66.4,28.5c-0.1-2.7-2.2-4-4.7-4c-2,0-4.3,0.8-4.3,3.1c0,2,2.2,2.7,3.8,3.1l2.9,0.7c2.5,0.4,5.2,1.9,5.2,5
	c0,3.9-3.9,5.4-7.3,5.4c-4.2,0-7.1-2-7.4-6.4h2.2c0.2,3,2.4,4.5,5.3,4.5c2.1,0,5-0.9,5-3.4c0-2.1-2-2.8-4-3.3l-2.8-0.6
	c-2.9-0.8-5.1-1.8-5.1-4.8c0-3.7,3.6-5.1,6.8-5.1c3.6,0,6.5,1.9,6.6,5.8H66.4z"/>
<path class="st1" d="M73.7,32.9c0,3.2,1.7,7.1,6,7.1c3.2,0,5-1.9,5.7-4.6h2.2c-0.9,4.1-3.3,6.5-7.9,6.5c-5.8,0-8.2-4.4-8.2-9.6
	c0-4.8,2.4-9.6,8.2-9.6c5.8,0,8.1,5.1,8,10.2H73.7z M85.5,31c-0.1-3.3-2.2-6.5-5.8-6.5c-3.6,0-5.6,3.2-6,6.5H85.5z"/>
<path class="st2" d="M102.4,29.8c0-1.5-1.4-2.6-2.9-2.6c-3.3,0-3.9,2.8-3.9,5.4c0,2.4,1,4.8,3.5,4.8c2.1,0,3.1-1.2,3.4-3.1h5.8
	c-0.5,4.9-4.3,7.7-9.2,7.7c-5.5,0-9.6-3.8-9.6-9.3c0-5.8,3.7-9.9,9.6-9.9c4.5,0,8.6,2.4,9,7.2H102.4z"/>
<path class="st2" d="M120.1,22.6c5.7,0,9.6,4.2,9.6,9.7s-4,9.6-9.6,9.6c-5.7,0-9.6-4.1-9.6-9.6S114.4,22.6,120.1,22.6z M120.1,37.3
	c2.8,0,3.7-2.7,3.7-5.1s-0.9-5.1-3.7-5.1c-2.8,0-3.6,2.8-3.6,5.1S117.3,37.3,120.1,37.3z"/>
<path class="st2" d="M132.9,23.1h5.8v2.5h0.1c1.1-1.9,3.5-3,5.7-3c6.1,0,6.6,4.4,6.6,7.1v11.7h-6v-8.8c0-2.5,0.3-5-3-5
	c-2.2,0-3.2,1.9-3.2,3.9v9.9h-6V23.1z"/>
<path class="st2" d="M166,27h-3.7v8.3c0,1.4,0.8,1.8,2.1,1.8c0.5,0,1-0.1,1.5-0.1v4.4c-1.1,0-2.2,0.2-3.3,0.2
	c-5.1,0-6.4-1.5-6.4-6.4V27h-3v-3.9h3v-5.5h6v5.5h3.7V27z"/>
<path class="st2" d="M168.8,23.1h5.8v3.2h0.1c0.9-2.3,2.9-3.5,5.5-3.5c0.5,0,0.9,0,1.4,0.1v5.4c-0.8-0.2-1.5-0.4-2.3-0.4
	c-3,0-4.5,2-4.5,4.3v9h-6V23.1z"/>
<path class="st2" d="M191.7,22.6c5.7,0,9.6,4.2,9.6,9.7s-4,9.6-9.6,9.6c-5.7,0-9.6-4.1-9.6-9.6S186,22.6,191.7,22.6z M191.7,37.3
	c2.8,0,3.7-2.7,3.7-5.1s-0.9-5.1-3.7-5.1s-3.6,2.8-3.6,5.1S188.9,37.3,191.7,37.3z"/>
<path class="st2" d="M204.6,16.3h6v25.1h-6V16.3z"/>
<path class="st1" d="M212.7,26.3h11.9v1.2h-5.2v13.8H218V27.6h-5.2V26.3z"/>
<path class="st1" d="M226,26.3h6.7c2.7,0,4.5,1.6,4.5,4.3s-1.8,4.3-4.5,4.3h-5.2v6.4H226V26.3z M227.5,33.7h4.9c2,0,3.3-1,3.3-3.1
	c0-2.1-1.4-3.1-3.3-3.1h-4.9V33.7z"/>
</svg>
