<?xml version="1.0" encoding="utf-8"?>
<!-- Generator: Adobe Illustrator 19.2.1, SVG Export Plug-In . SVG Version: 6.00 Build 0)  -->
<svg version="1.1" id="Layer_1" xmlns="http://www.w3.org/2000/svg" xmlns:xlink="http://www.w3.org/1999/xlink" x="0px" y="0px"
	 viewBox="0 0 128 37" style="enable-background:new 0 0 128 37;" xml:space="preserve">
<style type="text/css">
	.st0{fill:#FFFFFF;}
</style>
<g>
	<g>
		<path class="st0" d="M58.6,26.7H42.2v-3.2l9.7-10.3h-9.1V8.9h15.4V12l-9.7,10.3h10.2V26.7z"/>
		<path class="st0" d="M73,21.7c-0.6,0.9-1.7,1.3-3.2,1.3c-1.3,0-2.4-0.5-3.2-1.6c-0.8-1.1-1.2-2.4-1.2-3.9c0-1.6,0.3-3,1-4
			c0.7-1,1.8-1.5,3.3-1.5c1.3,0,2.4,0.6,3.1,1.7c0.8,1.1,1.1,2.4,1.1,3.9C74,19.4,73.7,20.8,73,21.7z M76.6,10.5
			c-1.7-1.7-4-2.6-6.9-2.6c-2.9,0-5.2,0.9-6.9,2.8c-1.7,1.9-2.5,4.2-2.5,6.8c0,2.9,0.8,5.3,2.3,7c1.6,1.8,3.9,2.6,7.1,2.6
			c2.9,0,5.2-0.9,6.9-2.6c1.7-1.7,2.5-4.1,2.5-7C79.1,14.5,78.3,12.2,76.6,10.5z"/>
		<path class="st0" d="M99,26.7H94V15.5c0-0.7-0.2-1.2-0.7-1.7c-0.5-0.5-1.2-0.8-2.2-0.8c-0.9,0-1.7,0.2-2.3,0.6
			c-0.6,0.4-1.1,0.7-1.5,1.1v12h-5.1V8.9l5.1-0.4v1.7L89.4,9c0.6-0.4,1.3-0.6,1.9-0.8C92,8.1,92.7,8,93.3,8c1.8,0,3.2,0.5,4.2,1.6
			c1,1.1,1.5,2.5,1.5,4.3V26.7z"/>
		<path class="st0" d="M108.2,6.7h-5.1V1.9h5.1V6.7z M108.2,26.7h-5.1V8.9l5.1-0.4V26.7z"/>
		<path class="st0" d="M126.3,25.3c-0.4,0.4-1,0.8-2,1.2c-1,0.4-2.2,0.6-3.6,0.6c-2.8,0-5-0.8-6.7-2.4c-1.7-1.6-2.5-4-2.5-7.2
			c0-2.6,0.9-4.8,2.6-6.8c1.8-2,4-3,6.7-3c1.1,0,2.1,0.1,3,0.3c0.9,0.2,1.6,0.4,2.1,0.6v5.3c-0.9-0.6-1.7-1-2.4-1.2
			c-0.7-0.2-1.5-0.3-2.4-0.3c-1.4,0-2.5,0.4-3.3,1.3c-0.8,0.9-1.2,2.2-1.2,3.9c0,1.7,0.5,2.9,1.4,3.7c0.9,0.8,2,1.2,3.3,1.2
			c1.1,0,2-0.2,2.8-0.5c0.8-0.3,1.5-0.8,2.2-1.3V25.3z"/>
	</g>
	<g>
		<path class="st0" d="M43,30.4h1.2c0.4,0,0.9,0,1.2,0.2c0.7,0.4,0.9,1.1,0.9,1.8c0,0.6-0.2,1.4-0.9,1.8c-0.4,0.2-0.8,0.2-1.2,0.2
			H43V30.4z M44.3,34.7c0.7,0,1.4-0.1,1.9-0.6c0.5-0.5,0.6-1.2,0.6-1.8c0-0.6-0.2-1.5-0.9-2c-0.5-0.3-1-0.4-1.6-0.4h-1.8v4.7H44.3z"
			/>
		<path class="st0" d="M47.8,34.7V30h3.5v0.4h-3v1.7h2.7v0.4h-2.7v1.9h3.1v0.4H47.8z"/>
		<path class="st0" d="M52.5,33.3c0.1,0.8,0.7,1.1,1.5,1.1c0.9,0,1.3-0.5,1.3-1c0-1.5-3.2-0.5-3.2-2.3c0-0.7,0.6-1.3,1.8-1.3
			c1.2,0,1.8,0.6,1.8,1.4h-0.5c0-0.7-0.6-1-1.3-1c-1,0-1.4,0.6-1.3,1c0.2,1.2,3.2,0.3,3.2,2.2c0,0.9-0.7,1.4-1.9,1.4
			c-1.1,0-1.9-0.5-1.9-1.5H52.5z"/>
		<path class="st0" d="M57,34.7V30h0.5v4.7H57z"/>
		<path class="st0" d="M61.1,32.6v-0.4h2.3v2.4h-0.4v-0.8c-0.4,0.6-0.9,0.9-2,0.9c-1.3,0-2.3-0.8-2.3-2.5c0-1.4,0.8-2.4,2.4-2.4
			c1.1,0,2,0.5,2.2,1.5h-0.5c-0.2-0.7-0.9-1.1-1.7-1.1c-1.4,0-2,0.9-2,2.2c0,1,0.7,1.9,1.9,1.9c0.6,0,1.3-0.2,1.6-0.8
			c0.2-0.3,0.2-0.6,0.2-1H61.1z"/>
		<path class="st0" d="M65.1,30.6L65.1,30.6l0,4.1h-0.5V30h0.6l3.1,4.1h0V30h0.5v4.7h-0.6L65.1,30.6z"/>
		<path class="st0" d="M74.7,33.8c-0.4,0.4-0.8,0.6-1.3,0.6c-0.7,0-1.2-0.4-1.2-1c0-0.5,0.4-1,1-1.2L74.7,33.8z M74.1,31.2
			c-0.1,0.3-0.5,0.5-0.8,0.6c-0.2-0.2-0.6-0.6-0.6-0.9c0-0.3,0.3-0.6,0.7-0.6C74,30.3,74.3,30.8,74.1,31.2z M73.6,32.1
			c0.6-0.3,1-0.6,1-1.2c0-0.5-0.5-0.9-1.1-0.9c-0.6,0-1.2,0.3-1.2,0.9c0,0.4,0.3,0.8,0.6,1c-0.7,0.3-1.3,0.7-1.3,1.5
			c0,0.8,0.7,1.4,1.7,1.4c0.7,0,1.2-0.2,1.7-0.7l0.5,0.6h0.6l-0.9-0.9c0.3-0.4,0.3-0.8,0.4-1.2h-0.4c0,0.3,0,0.6-0.2,0.9L73.6,32.1z
			"/>
		<path class="st0" d="M79,34.7V30h0.5v4.7H79z"/>
		<path class="st0" d="M80.9,34.7V30h0.8l1.7,4.1h0l1.7-4.1h0.8v4.7h-0.5v-4.2h0l-1.7,4.2h-0.5l-1.7-4.2h0v4.2H80.9z"/>
		<path class="st0" d="M88.9,30.4l1,2.5h-2.1L88.9,30.4z M87.1,34.7l0.6-1.5h2.4l0.6,1.5h0.5l-2-4.7h-0.6l-2.1,4.7H87.1z"/>
		<path class="st0" d="M94.2,32.6v-0.4h2.3v2.4H96v-0.8c-0.4,0.6-0.9,0.9-2,0.9c-1.3,0-2.3-0.8-2.3-2.5c0-1.4,0.8-2.4,2.4-2.4
			c1.1,0,2,0.5,2.2,1.5h-0.5c-0.2-0.7-0.9-1.1-1.7-1.1c-1.4,0-2,0.9-2,2.2c0,1,0.7,1.9,1.9,1.9c0.6,0,1.2-0.2,1.6-0.8
			c0.2-0.3,0.2-0.6,0.2-1H94.2z"/>
		<path class="st0" d="M97.8,34.7V30h0.5v4.7H97.8z"/>
		<path class="st0" d="M100.2,30.6L100.2,30.6l0,4.1h-0.5V30h0.6l3.1,4.1h0V30h0.5v4.7h-0.6L100.2,30.6z"/>
		<path class="st0" d="M107.2,32.6v-0.4h2.3v2.4h-0.4v-0.8c-0.4,0.6-0.9,0.9-2,0.9c-1.3,0-2.3-0.8-2.3-2.5c0-1.4,0.8-2.4,2.4-2.4
			c1.1,0,2,0.5,2.2,1.5h-0.5c-0.2-0.7-0.9-1.1-1.7-1.1c-1.4,0-2,0.9-2,2.2c0,1,0.7,1.9,1.9,1.9c0.6,0,1.3-0.2,1.6-0.8
			c0.2-0.3,0.2-0.6,0.2-1H107.2z"/>
		<path class="st0" d="M111.4,34.9c0,0.4-0.2,0.6-0.5,0.7v-0.2c0.1-0.1,0.2-0.2,0.2-0.4v-0.2h-0.2v-0.6h0.5V34.9z"/>
		<path class="st0" d="M114.8,34.7V30h0.5v4.3h2.8v0.4H114.8z"/>
		<path class="st0" d="M118.9,34.7V30h0.5v4.3h2.8v0.4H118.9z"/>
		<path class="st0" d="M126.7,31.4c-0.2-0.8-0.8-1.1-1.7-1.1c-1.3,0-1.8,1-1.8,2.1c0,1,0.4,2.1,1.9,2.1c0.9,0,1.5-0.5,1.7-1.3h0.5
			c-0.2,0.9-0.9,1.7-2.3,1.7c-1.6,0-2.3-1.1-2.3-2.5c0-1.8,1.1-2.5,2.5-2.5c1.1,0,1.9,0.5,2.1,1.5H126.7z"/>
	</g>
	<path class="st0" d="M0,18.5c0,10.1,8.2,18.4,18.4,18.4c10.1,0,18.4-8.2,18.4-18.4c0-10.1-8.2-18.4-18.4-18.4C8.2,0.1,0,8.4,0,18.5
		z M2.7,18.5c0-8.6,7-15.7,15.7-15.7c8.6,0,15.7,7,15.7,15.7c0,8.6-7,15.7-15.7,15.7C9.7,34.2,2.7,27.1,2.7,18.5z"/>
	<path class="st0" d="M26.4,23.9v4.5H8.9l9.6-15.9h-8V8h16.9l-9.6,15.9H26.4z"/>
</g>
</svg>
