<?xml version="1.0" encoding="utf-8"?>
<!-- Generator: Adobe Illustrator 20.1.0, SVG Export Plug-In . SVG Version: 6.00 Build 0)  -->
<svg version="1.1" id="Camada_1" xmlns="http://www.w3.org/2000/svg" xmlns:xlink="http://www.w3.org/1999/xlink" x="0px" y="0px"
	 viewBox="0 0 319.2 59.2" style="enable-background:new 0 0 319.2 59.2;" xml:space="preserve">
<style type="text/css">
	.st0{enable-background:new    ;}
	.st1{fill:#E2E3E4;}
	.st2{fill:#FFFFFF;}
</style>
<title>Ativo 4</title>
<g id="Camada_2">
	<g id="Camada_1-2">
		<g class="st0">
			<path d="M307.5,18.9h5v0.5h-2.2v5.8h-0.6v-5.8h-2.2V18.9z"/>
			<path d="M313.1,18.9h0.9l2.2,5.5l2.2-5.5h0.9v6.3h-0.6v-5.5h0l-2.2,5.5h-0.6l-2.2-5.5h0v5.5h-0.6V18.9z"/>
		</g>
		<path class="st1" d="M277.4,1.7c-3.9-0.4-7.7-0.6-11.6-0.6c-1.9,0-3.9,0.1-5.8,0.2s-3.8,0.3-5.7,0.6c-0.9,0.2-1.9,0.3-2.8,0.5
			s-1.9,0.4-2.8,0.7c-1.8,0.5-3.6,1.2-5.3,2c-1.7,0.8-3.3,1.9-4.8,3c-1.5,1.1-3,2.4-4.4,3.6c-2.9,2.7-5.9,5.2-9.1,7.5
			c-1.7,1.1-3.4,2.2-5.2,3.1c-1.8,0.9-3.7,1.6-5.6,2.2c-3.9,1.1-7.9,1.7-11.9,1.6c-2,0-4-0.1-6-0.4c-2-0.2-3.9-0.5-5.9-0.9h-0.2
			l-0.2-0.1l0,0l0,0h-0.1l-0.2-0.1c-0.1,0-0.2-0.1-0.3-0.1h-0.1l0,0c-0.1,0.2-0.2,0.4-0.2,0.6c-0.1,0.3-0.1,0.7-0.1,1
			c0,0.8,0.1,1.5,0.2,2.3c0.1,0.8,0.2,1.5,0.4,2.3s0.3,1.5,0.5,2.3s0.4,1.5,0.6,2.3c0.4,1.6,0.8,3.1,1.3,4.7l0.7,2.3l0.6,2.3
			c0.5,1.6,0.8,3.2,1.1,4.8c0.1,0.8,0.2,1.6,0.2,2.5c0,0.8-0.1,1.6-0.2,2.5c-0.1,0.8-0.3,1.6-0.5,2.4s-0.4,1.6-0.7,2.3
			c0.3-1.6,0.6-3.2,0.7-4.8c0.1-1.6,0-3.2-0.4-4.7c-0.4-1.6-0.8-3.2-1.4-4.7l-0.8-2.3l-0.8-2.3c-0.5-1.5-1-3.1-1.5-4.6
			c-0.2-0.8-0.5-1.5-0.7-2.3s-0.4-1.6-0.6-2.4s-0.4-1.6-0.5-2.4c-0.2-0.8-0.2-1.7-0.3-2.5c0-0.5,0-0.9,0.1-1.4
			c0-0.3,0.1-0.5,0.2-0.8c0.1-0.3,0.2-0.6,0.4-0.8c0.2-0.3,0.5-0.6,0.9-0.7c0.3-0.1,0.7-0.2,1.1-0.2c0.3,0,0.6,0.1,0.9,0.2l0.4,0.2
			l0.2,0.1l0.1,0.1l0.1,0.1l-0.4-0.2c1.9,0.3,3.8,0.6,5.7,0.7c1.9,0.2,3.8,0.3,5.7,0.2c3.8,0,7.5-0.5,11.1-1.6
			c1.8-0.6,3.5-1.2,5.2-2.1c1.7-0.8,3.3-1.8,4.9-2.9c3.1-2.2,6.1-4.7,9-7.2c1.5-1.3,3-2.5,4.7-3.7c1.6-1.2,3.4-2.2,5.2-3
			c1.8-0.8,3.7-1.4,5.7-1.9c1-0.2,1.9-0.4,2.9-0.6s2-0.3,2.9-0.4c2-0.2,3.9-0.3,5.9-0.3s3.9,0,5.9,0.2s3.9,0.3,5.8,0.6
			c1,0.1,1.9,0.3,2.9,0.4S276.4,1.5,277.4,1.7"/>
		<path class="st1" d="M286.1,6.3C285,6.1,284,6.1,282.9,6s-2.1-0.1-3.2-0.2c-2.1-0.1-4.2-0.2-6.3-0.2s-4.2,0-6.3,0.2
			s-4.2,0.3-6.3,0.6c-4.1,0.5-8.1,1.5-12,3c-3.8,1.7-7.3,3.9-10.5,6.6c-1.7,1.3-3.3,2.6-5,3.9s-3.5,2.5-5.3,3.6
			c-3.7,2.3-7.7,4-11.9,5c-2.1,0.5-4.2,0.9-6.4,1.1c-2.1,0.2-4.3,0.3-6.4,0.2c-4.3-0.1-8.5-0.7-12.6-1.6c4.2,0.5,8.4,0.7,12.6,0.6
			c2.1-0.1,4.2-0.2,6.3-0.5c2.1-0.3,4.1-0.7,6.1-1.3c1-0.3,2-0.6,3-1c1-0.4,1.9-0.8,2.9-1.2c1.9-0.9,3.7-1.9,5.5-3
			c3.5-2.3,6.9-4.8,10.1-7.5c1.7-1.3,3.4-2.6,5.2-3.8c0.9-0.6,1.9-1.1,2.8-1.6c1-0.5,2-1,3-1.4c2-0.8,4.1-1.4,6.2-1.9
			c2.1-0.5,4.2-0.8,6.4-1c2.1-0.2,4.3-0.3,6.4-0.3s4.3,0,6.4,0.2s4.2,0.3,6.4,0.6s4.2,0.6,6.3,1"/>
		<path class="st1" d="M276.3,9.6c-3.8,0.1-7.6,0.4-11.4,0.9c-1.9,0.3-3.8,0.6-5.6,1c-1.8,0.4-3.7,0.9-5.4,1.5
			c-1.8,0.6-3.5,1.4-5.1,2.3c-1.6,0.9-3.2,1.9-4.8,3c-3.1,2.1-6.1,4.5-9.2,6.7c-3.2,2.2-6.5,4.1-10.1,5.6c-3.6,1.5-7.3,2.5-11.1,3.1
			c-1.9,0.3-3.8,0.5-5.8,0.5c-1.9,0.1-3.8,0-5.8,0c-3.8-0.2-7.6-0.7-11.4-1.5c3.8,0.4,7.6,0.7,11.4,0.7c1.9,0,3.8,0,5.7-0.2
			s3.8-0.4,5.6-0.7c0.9-0.2,1.8-0.4,2.8-0.6c0.9-0.2,1.8-0.5,2.7-0.7c1.8-0.5,3.6-1.2,5.3-1.9c1.7-0.8,3.4-1.6,5-2.5
			c1.6-0.9,3.2-2,4.8-3s3.1-2.2,4.6-3.3s3.1-2.3,4.7-3.3c1.6-1.1,3.3-2.1,5-3c0.9-0.4,1.7-0.9,2.6-1.2s1.8-0.7,2.7-1
			c3.7-1.1,7.5-1.9,11.3-2.2C268.7,9.6,272.5,9.5,276.3,9.6"/>
		<path class="st1" d="M271.3,14.8c-3.5,0.5-7,1.3-10.5,2.3c-1.7,0.5-3.4,1.1-5,1.9c-1.6,0.7-3.2,1.6-4.7,2.5c-3.1,1.8-6,3.9-9,5.9
			c-3,2-6.1,3.9-9.3,5.5c-3.2,1.6-6.6,2.9-10.1,3.9c-3.5,0.9-7.1,1.5-10.6,1.8c-3.6,0.3-7.2,0.3-10.8,0c-3.6-0.2-7.1-0.7-10.7-1.3
			c7.1,0.9,14.3,1,21.4,0.4c3.5-0.3,7-1,10.5-1.9c3.4-1,6.7-2.3,9.9-3.9c3.2-1.6,6.2-3.4,9.2-5.4c3-2,5.9-4,9.1-5.8
			c1.6-0.9,3.2-1.7,4.9-2.4c1.7-0.7,3.4-1.3,5.1-1.7C264.1,15.7,267.6,15.1,271.3,14.8"/>
		<path class="st1" d="M256.8,23.4c-2.7,1.2-5.3,2.7-7.8,4.3c-2.5,1.6-4.9,3.3-7.3,5c-2.4,1.7-5,3.3-7.6,4.7
			c-2.6,1.4-5.4,2.6-8.2,3.6c-2.8,1-5.7,1.7-8.7,2.2c-2.9,0.5-5.9,0.8-8.9,0.8c-5.9,0.1-11.9-0.4-17.7-1.5
			c5.9,0.7,11.8,0.9,17.7,0.7c2.9-0.1,5.9-0.5,8.8-1c2.9-0.5,5.7-1.2,8.5-2.2c2.8-1,5.5-2.1,8.1-3.5c2.6-1.4,5.1-2.9,7.6-4.5
			s5-3.2,7.5-4.8C251.4,25.7,254.1,24.4,256.8,23.4"/>
		<g class="st0">
			<path class="st2" d="M199.6,32.6c0.1-2.7,1.4-4.5,3.2-5.6c1.8-1,4.2-1.4,6.6-1.4c4.9,0,9.7,1.1,9.7,7v9.1c0,1.8,0,3.7,0.8,5.3
				h-6.8c-0.2-0.6-0.3-1.3-0.4-2c-1.8,1.8-4.4,2.6-6.8,2.6c-4,0-7.1-2-7.1-6.3c0-6.8,7.4-6.2,12.1-7.2c1.2-0.2,1.8-0.6,1.8-1.9
				c0-1.6-1.9-2.2-3.3-2.2c-1.9,0-3.1,0.8-3.4,2.6H199.6z M208.4,43.4c3.2,0,4.3-1.8,4.2-6.1c-1,0.6-2.7,0.7-4.2,1.1
				c-1.5,0.4-2.8,1-2.8,2.6C205.6,42.7,206.9,43.4,208.4,43.4z"/>
			<path class="st2" d="M223.7,26.2h6.6V29h0.1c1.2-2.1,4-3.4,6.5-3.4c6.9,0,7.5,5,7.5,8.1V47h-6.8V36.9c0-2.8,0.3-5.7-3.4-5.7
				c-2.6,0-3.7,2.2-3.7,4.4V47h-6.8V26.2z"/>
			<path class="st2" d="M269,44.5c0,3.4-0.6,9.8-10.4,9.8c-4.8,0-9.4-1.1-10.2-6.6h6.8c0.2,0.9,0.5,1.5,1.2,1.8
				c0.6,0.3,1.4,0.4,2.5,0.4c3.2,0,3.6-2.3,3.6-4.8v-2h-0.1c-1.2,1.9-3.3,3-5.5,3c-6.3,0-9.1-4.5-9.1-10.3c0-5.5,3.2-10.2,9.1-10.2
				c2.5,0,4.4,1.1,5.6,3.2h0.1v-2.6h6.5V44.5z M258.5,30.8c-3,0-4,2.6-4,5.2c0,2.4,1.1,4.9,3.9,4.9c2.9,0,4.1-2.2,4.1-4.8
				C262.6,33.4,261.5,30.8,258.5,30.8z"/>
			<path class="st2" d="M279.2,38.2c0.1,2.8,1.8,4.7,4.6,4.7c1.6,0,3.2-0.8,3.9-2.3h6.4c-1.2,4.8-5.7,6.9-10.3,6.9
				c-6.8,0-11.4-4.1-11.4-11.1c0-6.4,5.1-10.9,11.2-10.9c7.5,0,11.2,5.6,10.9,12.7H279.2z M287.6,34.4c-0.1-2.3-1.8-4.2-4-4.2
				c-2.4,0-4,1.7-4.4,4.2H287.6z"/>
			<path class="st2" d="M298.1,18.4h6.8V47h-6.8V18.4z"/>
		</g>
		<g class="st0">
			<path class="st2" d="M19.1,46.3h-2.3v-3.9h-0.1c-1.1,2.7-4.4,4.5-7.4,4.5C3,46.9,0,41.9,0,36c0-5.8,3-10.9,9.3-10.9
				c3.1,0,6.1,1.6,7.2,4.5h0.1V17.7h2.5V46.3z M9.3,44.8c5.4,0,7.2-4.5,7.2-8.8c0-4.3-1.9-8.8-7.2-8.8c-4.8,0-6.8,4.5-6.8,8.8
				C2.5,40.3,4.5,44.8,9.3,44.8z"/>
			<path class="st2" d="M25.4,36.7c0,3.7,2,8.1,6.8,8.1c3.7,0,5.7-2.2,6.5-5.3h2.5c-1.1,4.7-3.8,7.4-9,7.4c-6.6,0-9.3-5-9.3-10.9
				c0-5.4,2.8-10.9,9.3-10.9c6.6,0,9.3,5.8,9.1,11.6H25.4z M38.7,34.6c-0.1-3.8-2.5-7.4-6.6-7.4c-4.1,0-6.4,3.6-6.8,7.4H38.7z"/>
			<path class="st2" d="M59.2,32.2c-0.7-3.1-2.6-5-5.8-5c-4.8,0-7.2,4.4-7.2,8.8c0,4.4,2.4,8.8,7.2,8.8c3.1,0,5.7-2.4,6-5.9h2.5
				c-0.7,5-3.9,8-8.5,8c-6.3,0-9.8-5-9.8-10.9c0-5.9,3.4-10.9,9.8-10.9c4.4,0,7.8,2.4,8.4,7.1H59.2z"/>
			<path class="st2" d="M65.5,17.7H68v28.6h-2.5V17.7z"/>
			<path class="st2" d="M72.9,17.7h2.5v4h-2.5V17.7z M72.9,25.7h2.5v20.7h-2.5V25.7z"/>
			<path class="st2" d="M80.2,25.7h2.5v3.6h0.1c0.9-2.5,3.7-4.2,6.6-4.2c5.8,0,7.6,3,7.6,8v13.3h-2.5V33.4c0-3.6-1.2-6.2-5.2-6.2
				c-4,0-6.4,3-6.5,7.1v12.1h-2.5V25.7z"/>
			<path class="st2" d="M103.3,36.7c0,3.7,2,8.1,6.8,8.1c3.7,0,5.7-2.2,6.5-5.3h2.5c-1.1,4.7-3.8,7.4-9,7.4c-6.6,0-9.3-5-9.3-10.9
				c0-5.4,2.8-10.9,9.3-10.9c6.6,0,9.3,5.8,9.1,11.6H103.3z M116.7,34.6c-0.1-3.8-2.5-7.4-6.6-7.4c-4.1,0-6.4,3.6-6.8,7.4H116.7z"/>
			<path class="st2" d="M140.8,46.3h-2.3v-3.9h-0.1c-1.1,2.7-4.4,4.5-7.4,4.5c-6.3,0-9.3-5.1-9.3-10.9c0-5.8,3-10.9,9.3-10.9
				c3.1,0,6.1,1.6,7.2,4.5h0.1V17.7h2.5V46.3z M131,44.8c5.4,0,7.2-4.5,7.2-8.8c0-4.3-1.9-8.8-7.2-8.8c-4.8,0-6.8,4.5-6.8,8.8
				C124.2,40.3,126.2,44.8,131,44.8z"/>
		</g>
		<g class="st0">
			<path class="st2" d="M168.9,36c0,5.9-3.4,10.9-9.8,10.9s-9.8-5-9.8-10.9c0-5.9,3.4-10.9,9.8-10.9S168.9,30.1,168.9,36z M151.8,36
				c0,4.4,2.4,8.8,7.2,8.8c4.8,0,7.2-4.4,7.2-8.8c0-4.4-2.4-8.8-7.2-8.8C154.2,27.2,151.8,31.6,151.8,36z"/>
			<path class="st2" d="M172.6,25.7h2.3v3.9h0.1c1.2-2.8,4-4.5,7.4-4.5c6.3,0,9.3,5.1,9.3,10.9c0,5.8-3,10.9-9.3,10.9
				c-3.1,0-6.1-1.6-7.2-4.5h-0.1V54h-2.5V25.7z M182.4,27.2c-5.6,0-7.2,4.1-7.2,8.8c0,4.3,1.9,8.8,7.2,8.8c4.8,0,6.8-4.5,6.8-8.8
				C189.2,31.7,187.2,27.2,182.4,27.2z"/>
		</g>
	</g>
</g>
</svg>
