<?xml version="1.0" encoding="utf-8"?>
<!-- Generator: Adobe Illustrator 19.2.1, SVG Export Plug-In . SVG Version: 6.00 Build 0)  -->
<svg version="1.1" id="Layer_1" xmlns="http://www.w3.org/2000/svg" xmlns:xlink="http://www.w3.org/1999/xlink" x="0px" y="0px"
	 viewBox="0 0 282 38" style="enable-background:new 0 0 282 38;" xml:space="preserve">
<style type="text/css">
	.st0{fill:#6E6F72;}
	.st1{fill:#3AC5F2;}
	.st2{fill:#010101;}
</style>
<g>
	<path class="st0" d="M8.1,11h5.3v2.7H8.1v17.4c0,2.1,0.3,3.3,2.6,3.4c0.9,0,1.8-0.1,2.7-0.2v2.7c-1,0-1.9,0.1-2.8,0.1
		c-4.2,0-5.7-1.4-5.6-5.8V13.7H0.5V11H5V3.2h3.2V11z"/>
	<path class="st0" d="M41.1,23.9c0,7.4-4.3,13.7-12.2,13.7s-12.2-6.3-12.2-13.7S21,10.3,28.9,10.3S41.1,16.5,41.1,23.9z M19.8,23.9
		c0,5.5,3,11,9.1,11c6.1,0,9.1-5.5,9.1-11c0-5.5-3-11-9.1-11C22.8,12.9,19.8,18.4,19.8,23.9z"/>
	<path class="st0" d="M50.8,11h5.3v2.7h-5.3v17.4c0,2.1,0.3,3.3,2.6,3.4c0.9,0,1.8-0.1,2.7-0.2v2.7c-1,0-1.9,0.1-2.8,0.1
		c-4.2,0-5.7-1.4-5.6-5.8V13.7h-4.5V11h4.5V3.2h3.2V11z"/>
	<path class="st0" d="M60.4,18.9c0.3-6.1,4.6-8.7,10.5-8.7c4.6,0,9.5,1.4,9.5,8.3v13.7c0,1.2,0.6,1.9,1.9,1.9c0.4,0,0.8-0.1,1-0.2
		v2.7c-0.7,0.2-1.2,0.2-2.1,0.2c-3.2,0-3.7-1.8-3.7-4.5h-0.1c-2.2,3.4-4.5,5.3-9.4,5.3c-4.8,0-8.7-2.4-8.7-7.6
		c0-7.3,7.1-7.5,13.9-8.3c2.6-0.3,4.1-0.7,4.1-3.5c0-4.3-3.1-5.3-6.8-5.3c-3.9,0-6.8,1.8-6.9,6H60.4z M77.2,22.7h-0.1
		c-0.4,0.8-1.8,1-2.7,1.2c-5.4,1-12,0.9-12,6c0,3.2,2.8,5.1,5.8,5.1c4.8,0,9.1-3.1,9-8.1V22.7z"/>
	<path class="st0" d="M86.7,1.1h3.2v35.8h-3.2V1.1z"/>
	<path class="st1" d="M96.1,10.9h8.3v4.6h0.1c1.3-3.3,4.2-5.1,7.8-5.1c0.7,0,1.4,0.1,2,0.2v7.8c-1.1-0.3-2.1-0.5-3.3-0.5
		c-4.2,0-6.4,2.9-6.4,6.2v12.9h-8.5V10.9z"/>
	<path class="st1" d="M123.5,25.9c0.2,3.6,2.2,5.9,5.8,5.9c2.1,0,4.1-1,4.9-2.9h8c-1.6,6-7.1,8.6-12.9,8.6
		c-8.5,0-14.2-5.1-14.2-13.8c0-8,6.4-13.7,14-13.7c9.3,0,14,7,13.6,15.8H123.5z M134.1,21.2c-0.2-2.9-2.2-5.3-5.1-5.3
		c-3,0-5,2.2-5.5,5.3H134.1z"/>
	<path class="st1" d="M146.6,18.9c0.1-3.4,1.8-5.6,4.1-7c2.3-1.3,5.3-1.8,8.3-1.8c6.2,0,12.1,1.4,12.1,8.7v11.4c0,2.2,0,4.6,1,6.7
		h-8.6c-0.3-0.8-0.4-1.6-0.5-2.5c-2.2,2.3-5.5,3.2-8.6,3.2c-5,0-8.9-2.5-8.9-7.9c0-8.5,9.2-7.8,15.1-9c1.5-0.3,2.3-0.8,2.3-2.4
		c0-2-2.4-2.7-4.1-2.7c-2.4,0-3.9,1.1-4.3,3.3H146.6z M157.6,32.4c4.1,0,5.4-2.3,5.2-7.7c-1.2,0.8-3.4,0.9-5.3,1.4
		c-1.9,0.5-3.5,1.3-3.5,3.3C154,31.5,155.7,32.4,157.6,32.4z"/>
	<path class="st1" d="M193.6,20.4c0-2.2-2-3.8-4.2-3.8c-4.8,0-5.5,4.1-5.5,7.7c0,3.4,1.5,6.8,5.1,6.8c3,0,4.5-1.7,4.9-4.5h8.3
		c-0.8,7-6.2,11-13.1,11c-7.8,0-13.6-5.4-13.6-13.3c0-8.3,5.3-14.2,13.6-14.2c6.5,0,12.2,3.4,12.8,10.3H193.6z"/>
	<path class="st1" d="M206.4,1.1h8.5v13.3h0.1c1.3-2.7,4.8-4.3,7.9-4.3c8.7,0,9.4,6.3,9.4,10.1v16.7h-8.5V24.3
		c0-3.6,0.4-7.2-4.3-7.2c-3.2,0-4.6,2.7-4.6,5.6v14.2h-8.5V1.1z"/>
	<path class="st0" d="M243.5,20.3c5.1,0,7.6,4,7.6,8.4c0,4.4-2.5,8.4-7.6,8.4c-5.1,0-7.7-4-7.7-8.4
		C235.9,24.3,238.4,20.3,243.5,20.3z M243.5,35.9c4.3,0,6.1-3.6,6.1-7.1c0-3.5-1.8-7.1-6.1-7.1c-4.3,0-6.1,3.6-6.1,7.1
		C237.4,32.3,239.2,35.9,243.5,35.9z"/>
	<path class="st0" d="M265.4,25.6c-0.5-2.5-2.6-3.9-5-3.9c-4.3,0-6.1,3.6-6.1,7.1c0,3.5,1.8,7.1,6.1,7.1c3,0,4.9-2.3,5.2-5.2h1.5
		c-0.4,4-3,6.5-6.7,6.5c-5.1,0-7.7-4-7.7-8.4c0-4.4,2.5-8.4,7.7-8.4c3.1,0,6.1,1.8,6.5,5.2H265.4z"/>
	<path class="st0" d="M269.5,20.7h7.2c2.9,0,4.8,1.7,4.8,4.6s-1.9,4.6-4.8,4.6h-5.7v6.9h-1.5V20.7z M271.1,28.6h5.3
		c2.1,0,3.6-1.1,3.6-3.3c0-2.2-1.5-3.3-3.6-3.3h-5.3V28.6z"/>
	<g>
		<path class="st2" d="M217.8,1.2h4.7v0.5h-2.1v5.5h-0.6V1.6h-2.1V1.2z"/>
		<path class="st2" d="M223,1.2h0.8l2.1,5.2l2.1-5.2h0.8v6h-0.6V2h0l-2,5.1h-0.5l-2-5.1h0v5.1H223V1.2z"/>
	</g>
</g>
</svg>
