<?xml version="1.0" encoding="utf-8"?>
<!-- Generator: Adobe Illustrator 19.2.1, SVG Export Plug-In . SVG Version: 6.00 Build 0)  -->
<svg version="1.1" id="Layer_1" xmlns="http://www.w3.org/2000/svg" xmlns:xlink="http://www.w3.org/1999/xlink" x="0px" y="0px"
	 viewBox="0 0 275 50" style="enable-background:new 0 0 275 50;" xml:space="preserve">
<style type="text/css">
	.st0{fill:#E2E4E5;}
	.st1{fill:#6F7073;}
	.st2{fill:#3AC5F2;}
</style>
<g>
	<path class="st0" d="M55.2,0c3.9,1.3,7.7,2.8,11.5,4.3c3.8,1.5,7.6,3,11.4,4.6c3.8,1.6,7.5,3.2,11.3,4.8c3.7,1.6,7.5,3.3,11.2,5
		l0.6,0.3l0,0.7c0,2.1,0,4.2,0,6.3c0,2.1-0.1,4.2-0.1,6.3c-0.1,2.1-0.1,4.2-0.2,6.3c-0.1,2.1-0.2,4.2-0.3,6.3
		c-0.2-2.1-0.4-4.2-0.5-6.3c-0.2-2.1-0.3-4.2-0.4-6.3c-0.1-2.1-0.2-4.2-0.3-6.3c-0.1-2.1-0.2-4.2-0.2-6.3l0.6,1
		c-3.8-1.6-7.5-3.2-11.3-4.8c-3.7-1.6-7.5-3.3-11.2-5c-3.7-1.7-7.4-3.5-11.1-5.3C62.4,3.8,58.8,1.9,55.2,0z"/>
	<path class="st0" d="M97.9,23.2c-4.3-0.8-8.6-1.7-12.9-2.7c-4.3-1-8.5-2.1-12.7-3.3c-4.2-1.2-8.4-2.4-12.6-3.7
		c-4.2-1.3-8.4-2.7-12.5-4.2C51.5,10,55.8,11,60.1,12c4.3,1,8.5,2.1,12.7,3.3c4.2,1.2,8.4,2.4,12.6,3.7
		C89.6,20.3,93.8,21.6,97.9,23.2z"/>
	<path class="st0" d="M97.3,27.2c-1.9-0.1-3.7-0.2-5.6-0.3c-1.8-0.1-3.7-0.3-5.5-0.5c-3.7-0.4-7.4-0.8-11-1.4
		c-3.7-0.5-7.3-1.1-11-1.8c-1.8-0.3-3.6-0.7-5.4-1.1c-1.8-0.4-3.6-0.8-5.4-1.3c1.9,0.1,3.7,0.2,5.6,0.3c1.8,0.1,3.7,0.3,5.5,0.5
		c3.7,0.4,7.4,0.8,11,1.4c3.7,0.5,7.3,1.1,11,1.8c1.8,0.3,3.6,0.7,5.4,1.1C93.7,26.3,95.5,26.7,97.3,27.2z"/>
	<path class="st0" d="M97.7,30.7c-1.7,0.2-3.4,0.4-5.1,0.6c-1.7,0.2-3.4,0.3-5.1,0.4c-3.4,0.2-6.8,0.3-10.2,0.4
		c-3.4,0.1-6.8,0.1-10.2,0c-1.7,0-3.4-0.1-5.1-0.2c-1.7-0.1-3.4-0.2-5.1-0.4c1.7-0.2,3.4-0.4,5.1-0.6c1.7-0.2,3.4-0.3,5.1-0.4
		c3.4-0.2,6.8-0.3,10.2-0.4c3.4-0.1,6.8-0.1,10.2,0c1.7,0,3.4,0.1,5.1,0.2C94.3,30.4,96,30.5,97.7,30.7z"/>
	<path class="st0" d="M97.7,34.4c-1,0.4-2,0.7-3,1c-1,0.3-2,0.5-3,0.8c-2,0.5-4.1,0.9-6.1,1.2c-2,0.3-4.1,0.6-6.2,0.8
		c-1,0.1-2.1,0.2-3.1,0.2c-1,0-2.1,0.1-3.1,0c1-0.4,2-0.7,3-1c1-0.3,2-0.5,3-0.8c2-0.5,4.1-0.9,6.1-1.2c2-0.3,4.1-0.6,6.2-0.8
		c1-0.1,2.1-0.2,3.1-0.2C95.6,34.3,96.6,34.3,97.7,34.4z"/>
	<path class="st0" d="M97.5,37.8c-0.4,0.5-0.8,0.9-1.2,1.3c-0.4,0.4-0.9,0.8-1.3,1.1c-0.9,0.7-1.9,1.3-2.9,1.9c-1,0.6-2,1.1-3.1,1.5
		c-0.5,0.2-1.1,0.4-1.6,0.6c-0.6,0.2-1.1,0.3-1.7,0.4c0.4-0.5,0.8-0.9,1.2-1.3c0.4-0.4,0.9-0.8,1.3-1.1c0.9-0.7,1.9-1.3,2.9-1.9
		c1-0.6,2-1.1,3.1-1.5c0.5-0.2,1.1-0.4,1.6-0.6C96.3,38.1,96.9,37.9,97.5,37.8z"/>
</g>
<g>
	<path class="st0" d="M167.5,0c-3.6,1.9-7.3,3.8-10.9,5.6c-3.7,1.8-7.4,3.6-11.1,5.3c-3.7,1.7-7.4,3.4-11.2,5
		c-3.7,1.6-7.5,3.3-11.3,4.8l0.6-1c-0.1,2.1-0.1,4.2-0.2,6.3c-0.1,2.1-0.2,4.2-0.3,6.3c-0.1,2.1-0.2,4.2-0.4,6.3
		c-0.2,2.1-0.3,4.2-0.5,6.3c-0.1-2.1-0.2-4.2-0.3-6.3c-0.1-2.1-0.2-4.2-0.2-6.3c-0.1-2.1-0.1-4.2-0.1-6.3c0-2.1,0-4.2,0-6.3l0-0.7
		l0.6-0.3c3.7-1.7,7.4-3.4,11.2-5c3.7-1.6,7.5-3.3,11.3-4.8c3.8-1.6,7.6-3.1,11.4-4.6C159.8,2.8,163.7,1.3,167.5,0z"/>
	<path class="st0" d="M124.8,23.2c4.1-1.6,8.3-2.9,12.5-4.2c4.2-1.3,8.4-2.5,12.6-3.7c4.2-1.2,8.5-2.3,12.7-3.3
		c4.3-1,8.5-2,12.9-2.7c-4.1,1.6-8.3,2.9-12.5,4.2c-4.2,1.3-8.4,2.5-12.6,3.7c-4.2,1.2-8.5,2.3-12.7,3.3
		C133.4,21.5,129.1,22.4,124.8,23.2z"/>
	<path class="st0" d="M125.3,27.2c1.8-0.5,3.6-0.9,5.4-1.3c1.8-0.4,3.6-0.7,5.4-1.1c3.6-0.7,7.3-1.3,11-1.8c3.7-0.5,7.3-1,11-1.4
		c1.8-0.2,3.7-0.4,5.5-0.5c1.8-0.1,3.7-0.3,5.6-0.3c-1.8,0.5-3.6,0.9-5.4,1.3c-1.8,0.4-3.6,0.7-5.4,1.1c-3.6,0.7-7.3,1.3-11,1.8
		c-3.7,0.5-7.3,1-11,1.4c-1.8,0.2-3.7,0.4-5.5,0.5C129.1,27,127.2,27.2,125.3,27.2z"/>
	<path class="st0" d="M125,30.7c1.7-0.2,3.4-0.3,5.1-0.4c1.7-0.1,3.4-0.2,5.1-0.2c3.4-0.1,6.8-0.1,10.2,0c3.4,0.1,6.8,0.2,10.2,0.4
		c1.7,0.1,3.4,0.2,5.1,0.4c1.7,0.2,3.4,0.3,5.1,0.6c-1.7,0.2-3.4,0.3-5.1,0.4c-1.7,0.1-3.4,0.2-5.1,0.2c-3.4,0.1-6.8,0.1-10.2,0
		c-3.4-0.1-6.8-0.2-10.2-0.4c-1.7-0.1-3.4-0.2-5.1-0.4C128.3,31.1,126.7,30.9,125,30.7z"/>
	<path class="st0" d="M125,34.4c1.1-0.1,2.1,0,3.1,0c1,0,2.1,0.1,3.1,0.2c2.1,0.2,4.1,0.4,6.2,0.8c2,0.3,4.1,0.7,6.1,1.2
		c1,0.2,2,0.5,3,0.8c1,0.3,2,0.6,3,1c-1.1,0.1-2.1,0-3.1,0c-1,0-2.1-0.1-3.1-0.2c-2.1-0.2-4.1-0.4-6.2-0.8c-2-0.3-4.1-0.7-6.1-1.2
		c-1-0.2-2-0.5-3-0.8C127,35,126,34.7,125,34.4z"/>
	<path class="st0" d="M125.2,37.8c0.6,0.1,1.2,0.3,1.7,0.4c0.6,0.2,1.1,0.4,1.6,0.6c1.1,0.4,2.1,1,3.1,1.5c1,0.6,1.9,1.2,2.9,1.9
		c0.5,0.4,0.9,0.7,1.3,1.1c0.4,0.4,0.9,0.8,1.2,1.3c-0.6-0.1-1.2-0.3-1.7-0.4c-0.6-0.2-1.1-0.4-1.6-0.6c-1.1-0.4-2.1-1-3.1-1.5
		c-1-0.6-1.9-1.2-2.9-1.9c-0.5-0.4-0.9-0.7-1.3-1.1C126,38.7,125.6,38.3,125.2,37.8z"/>
</g>
<g>
	<path class="st1" d="M263.9,17.7h4.4v0.4h-1.9v5.1h-0.5v-5.1h-1.9V17.7z"/>
	<path class="st1" d="M268.8,17.7h0.8l1.9,4.8l1.9-4.8h0.8v5.5h-0.5v-4.8h0l-1.9,4.8h-0.5l-1.9-4.8h0v4.8h-0.5V17.7z"/>
</g>
<path class="st1" d="M2.2,33.2c0,3.2,1.7,7.1,6,7.1c3.2,0,5-1.9,5.7-4.6h2.2c-0.9,4.1-3.3,6.5-7.9,6.5c-5.8,0-8.2-4.4-8.2-9.6
	C0,27.8,2.4,23,8.2,23c5.8,0,8.1,5.1,8,10.2H2.2z M13.9,31.3c-0.1-3.3-2.2-6.5-5.8-6.5c-3.6,0-5.6,3.2-6,6.5H13.9z"/>
<path class="st1" d="M19.1,23.5h2.2v3.1h0.1c0.8-2.2,3.2-3.7,5.8-3.7c5.1,0,6.6,2.7,6.6,7v11.7h-2.2V30.3c0-3.1-1-5.5-4.6-5.5
	c-3.5,0-5.6,2.7-5.7,6.2v10.6h-2.2V23.5z"/>
<path class="st1" d="M39.3,33.2c0,3.2,1.7,7.1,6,7.1c3.2,0,5-1.9,5.7-4.6h2.2c-0.9,4.1-3.3,6.5-7.9,6.5c-5.8,0-8.2-4.4-8.2-9.6
	c0-4.8,2.4-9.6,8.2-9.6c5.8,0,8.1,5.1,8,10.2H39.3z M51,31.3c-0.1-3.3-2.2-6.5-5.8-6.5c-3.6,0-5.6,3.2-6,6.5H51z"/>
<path class="st1" d="M56.2,23.5h2v4.2h0.1c1.1-2.9,3.6-4.6,6.8-4.5v2.2c-4-0.2-6.7,2.7-6.7,6.5v9.7h-2.2V23.5z"/>
<path class="st1" d="M82.6,40.1c0,5.4-2.1,8.7-8,8.7c-3.6,0-7.2-1.6-7.5-5.5h2.2c0.5,2.7,2.8,3.6,5.3,3.6c4.1,0,5.8-2.4,5.8-6.8
	v-2.5h-0.1c-1,2.2-3.2,3.7-5.8,3.7c-5.8,0-8.2-4.1-8.2-9.3c0-5,3-9.1,8.2-9.1c2.6,0,4.9,1.7,5.8,3.7h0.1v-3.1h2.2V40.1z M80.4,32.3
	c0-3.5-1.7-7.5-5.8-7.5c-4.2,0-6,3.8-6,7.5c0,3.7,1.9,7.2,6,7.2C78.4,39.5,80.4,36,80.4,32.3z"/>
<path class="st1" d="M84.8,23.5h2.4l6,15.4l5.6-15.4h2.2L93,44.4c-1.3,3.1-2,3.9-4.8,3.9c-0.9,0-1.3,0-1.7-0.2v-1.9
	c0.5,0.1,1,0.2,1.5,0.2c2,0,2.4-1.2,3.2-2.8l0.8-2.1L84.8,23.5z"/>
<path class="st2" d="M103,16.5h6v8.8h0.1c1.2-1.7,2.9-2.5,5.2-2.5c5.2,0,7.7,4.5,7.7,9.2c0,5.1-2.4,10-8.1,10c-2.1,0-3.9-0.9-5-2.6
	h-0.1v2.1H103V16.5z M108.7,32.3c0,3.2,0.9,5.3,3.6,5.3c2.7,0,3.6-2.8,3.6-5.3c0-2.3-0.9-4.9-3.5-4.9
	C110.8,27.4,108.7,28.6,108.7,32.3z"/>
<path class="st2" d="M133.8,22.9c5.7,0,9.6,4.2,9.6,9.7s-4,9.6-9.6,9.6c-5.7,0-9.6-4.1-9.6-9.6S128.1,22.9,133.8,22.9z M133.8,37.6
	c2.8,0,3.7-2.7,3.7-5.1s-0.9-5.1-3.7-5.1c-2.8,0-3.6,2.8-3.6,5.1S131,37.6,133.8,37.6z"/>
<path class="st2" d="M155.3,22.9c5.7,0,9.6,4.2,9.6,9.7s-4,9.6-9.6,9.6c-5.7,0-9.6-4.1-9.6-9.6S149.6,22.9,155.3,22.9z M155.3,37.6
	c2.8,0,3.7-2.7,3.7-5.1s-0.9-5.1-3.7-5.1c-2.8,0-3.6,2.8-3.6,5.1S152.5,37.6,155.3,37.6z"/>
<path class="st2" d="M172.6,35.6c0,0.9,0.4,1.6,1,2c0.6,0.4,1.4,0.6,2.2,0.6c1.2,0,2.8-0.5,2.8-1.9c0-1.4-1.9-1.7-2.9-1.9
	c-3.8-0.9-8.5-1.1-8.5-6c0-4.4,4.7-5.6,8.3-5.6c4,0,8.2,1.2,8.4,5.9h-5.5c0-0.8-0.3-1.3-0.8-1.6c-0.5-0.3-1.2-0.5-1.9-0.5
	c-1,0-2.6,0.1-2.6,1.4c0,1.7,4,2,6.7,2.6c3.7,0.7,4.6,3.4,4.6,4.9c0,4.9-4.6,6.5-8.7,6.5c-4.3,0-8.7-1.4-8.9-6.5H172.6z"/>
<path class="st2" d="M198.5,27.3h-3.7v8.3c0,1.4,0.8,1.8,2.1,1.8c0.5,0,1-0.1,1.5-0.1v4.4c-1.1,0-2.2,0.2-3.3,0.2
	c-5.1,0-6.4-1.5-6.4-6.4v-8.1h-3v-3.9h3v-5.5h6v5.5h3.7V27.3z"/>
<path class="st2" d="M206.3,34c0.1,2.5,1.5,4.1,4.1,4.1c1.4,0,2.8-0.7,3.4-2h5.6c-1.1,4.2-5,6-9.1,6c-5.9,0-10-3.6-10-9.7
	c0-5.6,4.5-9.6,9.8-9.6c6.5,0,9.8,4.9,9.5,11.1H206.3z M213.7,30.6c-0.1-2-1.5-3.7-3.5-3.7c-2.1,0-3.5,1.5-3.9,3.7H213.7z"/>
<path class="st2" d="M222.9,23.4h5.8v3.2h0.1c0.9-2.3,2.9-3.5,5.5-3.5c0.5,0,0.9,0,1.4,0.1v5.4c-0.8-0.2-1.5-0.4-2.3-0.4
	c-3,0-4.5,2-4.5,4.3v9h-6V23.4z"/>
<path class="st1" d="M237.1,26.6h6.9c2.5,0,4.6,1.2,4.6,3.9c0,1.9-1,3.5-2.9,3.8v0c2,0.3,2.5,1.6,2.6,3.4c0.1,1,0.1,3.1,0.7,3.9
	h-1.6c-0.4-0.6-0.4-1.7-0.4-2.3c-0.1-2.1-0.3-4.4-3-4.3h-5.4v6.7h-1.4V26.6z M238.6,33.7h5.3c1.7,0,3.2-1.1,3.2-2.9
	c0-1.8-1.1-3-3.2-3h-5.3V33.7z"/>
<path class="st1" d="M249.7,26.6h11.9v1.2h-5.2v13.8h-1.4V27.8h-5.2V26.6z"/>
<path class="st1" d="M269.3,26.3c4.7,0,7.1,3.7,7.1,7.8c0,4.1-2.4,7.8-7.1,7.8c-4.7,0-7.1-3.7-7.1-7.8
	C262.2,30,264.5,26.3,269.3,26.3z M269.3,40.7c4,0,5.6-3.3,5.6-6.6c0-3.3-1.7-6.6-5.6-6.6c-4,0-5.7,3.3-5.7,6.6
	C263.6,37.4,265.3,40.7,269.3,40.7z"/>
</svg>
